<svg width="17" height="22" viewBox="0 0 17 22" fill="none" xmlns="http://www.w3.org/2000/svg">
<g clip-path="url(#clip0_26_117)">
<path d="M15.6777 2.75H1.32218C0.332549 2.75 -0.47226 3.57225 -0.47226 4.58333V17.4167C-0.47226 18.4278 0.332549 19.25 1.32218 19.25H15.6777C16.6674 19.25 17.4722 18.4278 17.4722 17.4167V4.58333C17.4722 3.57225 16.6674 2.75 15.6777 2.75ZM15.6786 8.25C15.6777 8.25 15.6777 8.25 15.6786 8.25H15.2614L12.8685 4.58333H15.6777L15.6786 8.25ZM6.28921 8.25L3.89632 4.58333H6.2255L8.6184 8.25H6.28921ZM10.7753 8.25L8.38243 4.58333H10.7116L13.1045 8.25H10.7753ZM1.32218 4.58333H1.73939L4.13229 8.25H1.32218V4.58333ZM1.32218 17.4167V10.0833H15.6777L15.6795 17.4167H1.32218Z" fill="#00A1DC"/>
<path d="M6.70557 16.5L11.6403 13.75L6.70557 11V16.5Z" fill="#00A1DC"/>
</g>
<defs>
<clipPath id="clip0_26_117">
<rect width="17" height="22" fill="white"/>
</clipPath>
</defs>
</svg>
