<svg width="15" height="16" viewBox="0 0 15 16" fill="none" xmlns="http://www.w3.org/2000/svg">
<path d="M1.78681 11.0709H13.0006L11.3986 9.26352L12.5693 8.09285L14.7874 10.619V14.357C14.7874 14.8088 14.6267 15.1957 14.3052 15.5178C13.9831 15.8393 13.5962 16 13.1444 16H1.64304C1.19121 16 0.80427 15.8393 0.482233 15.5178C0.160744 15.1957 0 14.8088 0 14.357V10.619L2.25919 8.05177L3.42986 9.22244L1.78681 11.0709ZM12.6925 5.64882L8.58491 9.75643C8.26999 10.0713 7.88333 10.2252 7.42492 10.2181C6.96596 10.2116 6.57902 10.0508 6.26411 9.73589L3.36824 6.84003C3.05332 6.52511 2.89943 6.13845 2.90655 5.68004C2.91312 5.22108 3.07386 4.83414 3.38878 4.51923L7.41424 0.493769C7.72915 0.178852 8.11938 0.0145478 8.58491 0.000855753C9.05044 -0.0128363 9.44066 0.137776 9.75558 0.452693L12.6514 3.34856C12.9664 3.66348 13.1307 4.04685 13.1444 4.49869C13.158 4.95053 13.0074 5.3339 12.6925 5.64882ZM11.5013 4.51923L8.60544 1.62336L4.53891 5.6899L7.43478 8.58576L11.5013 4.51923ZM1.64304 14.357H13.1444V12.7139H1.64304V14.357Z" fill="#00A1DC"/>
</svg>
