<svg width="18" height="17" viewBox="0 0 18 17" fill="none" xmlns="http://www.w3.org/2000/svg">
<path d="M11.9 1.7C11.9 0.7565 12.6565 0 13.6 0C14.5435 0 15.3 0.7565 15.3 1.7C15.3 2.6435 14.5435 3.4 13.6 3.4C12.6565 3.4 11.9 2.6435 11.9 1.7ZM15.3 16.15V11.9H16.2435C16.8215 11.9 17.2295 11.3305 17.051 10.778L15.266 5.4145C15.1523 5.07595 14.9353 4.78155 14.6457 4.57268C14.356 4.3638 14.0081 4.25096 13.651 4.25H13.549C13.1916 4.24968 12.8431 4.36202 12.5532 4.57108C12.2633 4.78013 12.0466 4.07526 11.934 4.4145L11.203 7.6075C12.121 8.1175 12.75 9.078 12.75 10.2V17H14.45C14.9175 17 15.3 16.6175 15.3 16.15ZM8.925 8.075C9.6305 8.075 10.2 7.5055 10.2 6.8C10.2 6.0945 9.6305 5.525 8.925 5.525C8.2195 5.525 7.65 6.0945 7.65 6.8C7.65 7.5055 8.2195 8.075 8.925 8.075ZM2.975 3.4C3.9185 3.4 4.675 2.6435 4.675 1.7C4.675 0.7565 3.9185 0 2.975 0C2.0315 0 1.275 0.7565 1.275 1.7C1.275 2.6435 2.0315 3.4 2.975 3.4ZM4.675 16.15V11.05H5.1C5.5675 11.05 5.95 10.6675 5.95 10.2V5.95C5.95 5.015 5.185 4.25 4.25 4.25H1.7C0.765 4.25 0 5.015 0 5.95V10.2C0 10.6675 0.3825 11.05 0.85 11.05H1.275V16.15C1.275 16.6175 1.6575 17 2.125 17H3.825C4.2925 17 4.675 16.6175 4.675 16.15ZM6.8 10.2V12.75C6.8 13.2175 7.1825 13.6 7.65 13.6V16.15C7.65 16.6175 8.0325 17 8.5 17H9.35C9.8175 17 10.2 16.6175 10.2 16.15V13.6C10.6675 13.6 11.05 13.2175 11.05 12.75V10.2C11.05 9.503 10.472 8.925 9.775 8.925H8.075C7.378 8.925 6.8 9.503 6.8 10.2Z" fill="#00A1DC"/>
</svg>
