<svg width="17" height="17" viewBox="0 0 17 17" fill="none" xmlns="http://www.w3.org/2000/svg">
<g clip-path="url(#clip0_26_64)">
<path d="M2.39062 4.95837V14.698C2.39062 16.6468 3.82022 17.3542 4.78125 17.3542H16.7344V15.5834H4.79081C4.42266 15.5727 3.98438 15.4116 3.98438 14.698C3.98438 13.9843 4.42266 13.8232 4.79081 13.8125H16.7344V1.41671C16.7344 0.440093 16.0196 -0.354126 15.1406 -0.354126H4.78125C3.82022 -0.354126 2.39062 0.353322 2.39062 2.30212V4.95837ZM4.78125 1.41671H15.1406V12.0417H3.98438V2.30212C3.98438 1.58848 4.42266 1.42733 4.78125 1.41671Z" fill="#00A1DC"/>
<path d="M9.56011 10.2709L12.2296 7.35873C12.3942 7.18284 12.5252 6.97184 12.6146 6.73838C12.7041 6.50492 12.7502 6.25379 12.7502 6.00005C12.7502 5.74632 12.7041 5.49519 12.6146 5.26173C12.5252 5.02827 12.3942 4.81727 12.2296 4.64138C11.8978 4.27748 11.4504 4.07344 10.9841 4.07344C10.5179 4.07344 10.0704 4.27748 9.73861 4.64138L9.56011 4.8344L9.38161 4.6405C9.04993 4.27665 8.60259 4.07263 8.13649 4.07263C7.6704 4.07263 7.22306 4.27665 6.89138 4.6405C6.72678 4.81638 6.59584 5.02738 6.5064 5.26084C6.41695 5.49431 6.37085 5.74543 6.37085 5.99917C6.37085 6.2529 6.41695 6.50403 6.5064 6.73749C6.59584 6.97096 6.72678 7.18195 6.89138 7.35784L9.56011 10.2709Z" fill="#00A1DC"/>
</g>
<defs>
<clipPath id="clip0_26_64">
<rect width="17" height="17" fill="white"/>
</clipPath>
</defs>
</svg>
