<svg width="20" height="18" viewBox="0 0 20 18" fill="none" xmlns="http://www.w3.org/2000/svg">
<path d="M1.74875 7.22217V15.2222C1.74875 15.6937 1.93605 16.1458 2.26945 16.4792C2.60285 16.8126 3.05503 16.9999 3.52653 16.9999H15.971C16.4425 16.9999 16.8947 16.8126 17.2281 16.4792C17.5615 16.1458 17.7488 15.6937 17.7488 15.2222V7.22217" stroke="#00A1DC" stroke-width="1.5"/>
<path d="M12.267 17V11.6667C12.267 11.1952 12.0797 10.743 11.7463 10.4096C11.4129 10.0762 10.9607 9.88892 10.4892 9.88892H8.7114C8.2399 9.88892 7.78772 10.0762 7.45432 10.4096C7.12092 10.743 6.93362 11.1952 6.93362 11.6667V17" stroke="#00A1DC" stroke-width="1.5" stroke-miterlimit="16"/>
<path d="M18.4759 6.65689L16.9701 1.38667C16.9382 1.27524 16.8709 1.17723 16.7784 1.10747C16.6858 1.0377 16.5731 0.999974 16.4572 1H12.8599L13.2821 6.07022C13.2885 6.15175 13.3142 6.23058 13.3572 6.30015C13.4002 6.36972 13.4591 6.42803 13.5292 6.47022C13.8759 6.67733 14.5532 7.05956 15.0821 7.22222C15.9852 7.50044 17.3043 7.4 18.0563 7.30756C18.1294 7.2981 18.1996 7.27281 18.2619 7.23345C18.3242 7.19409 18.3772 7.1416 18.4172 7.07964C18.4571 7.01769 18.4831 6.94776 18.4932 6.87475C18.5033 6.80173 18.4974 6.72738 18.4759 6.65689Z" stroke="#00A1DC" stroke-width="1.5"/>
<path d="M11.5265 7.22222C12.0314 7.06667 12.6714 6.712 13.0287 6.50044C13.112 6.45087 13.1796 6.37873 13.2237 6.29238C13.2677 6.20603 13.2864 6.10898 13.2776 6.01244L12.8599 1H6.63763L6.21985 6.01244C6.21091 6.10912 6.22954 6.20636 6.27358 6.29289C6.31763 6.37941 6.3853 6.45169 6.46874 6.50133C6.82608 6.712 7.46608 7.06667 7.97096 7.22222C9.29808 7.63111 10.1994 7.63111 11.5265 7.22222V7.22222Z" stroke="#00A1DC" stroke-width="1.5"/>
<path d="M2.52741 1.38667L1.02163 6.65778C1.00038 6.72816 0.994697 6.80232 1.00498 6.87512C1.01527 6.94792 1.04127 7.01761 1.08119 7.07935C1.12111 7.14109 1.17399 7.1934 1.23615 7.23266C1.29832 7.27191 1.36828 7.29717 1.44119 7.30667C2.1923 7.4 3.5123 7.49956 4.41541 7.22222C4.9443 7.05956 5.62252 6.67733 5.9683 6.47111C6.03847 6.42883 6.09751 6.37038 6.14049 6.30065C6.18348 6.23091 6.20917 6.1519 6.21541 6.07022L6.63763 1H3.0403C2.92441 0.999974 2.81166 1.0377 2.71912 1.10747C2.62658 1.17723 2.55928 1.27524 2.52741 1.38667V1.38667Z" stroke="#00A1DC" stroke-width="1.5"/>
</svg>
