<svg width="21" height="19" viewBox="0 0 21 19" fill="none" xmlns="http://www.w3.org/2000/svg">
<path d="M14.2632 6.63159H6.68421C3.54511 6.63159 1 9.1767 1 12.3158C1 15.4549 3.54511 18 6.68421 18H14.2632C17.4023 18 19.9474 15.4549 19.9474 12.3158C19.9474 9.1767 17.4023 6.63159 14.2632 6.63159Z" stroke="#00A1DC" stroke-width="1.4" stroke-linejoin="round"/>
<path d="M6.6842 10.421V14.2105M4.78946 12.3158H8.57893" stroke="#00A1DC" stroke-width="1.4" stroke-linecap="round" stroke-linejoin="round"/>
<path d="M14.2631 14.2105C14.7656 14.2105 15.2476 14.0109 15.6029 13.6555C15.9582 13.3002 16.1579 12.8183 16.1579 12.3158C16.1579 11.8132 15.9582 11.3313 15.6029 10.976C15.2476 10.6206 14.7656 10.421 14.2631 10.421C13.7606 10.421 13.2787 10.6206 12.9233 10.976C12.568 11.3313 12.3684 11.8132 12.3684 12.3158C12.3684 12.8183 12.568 13.3002 12.9233 13.6555C13.2787 14.0109 13.7606 14.2105 14.2631 14.2105Z" stroke="#00A1DC" stroke-width="1.4" stroke-linejoin="round"/>
<path d="M10 6V3H13V0" stroke="#00A1DC" stroke-width="1.4" stroke-linejoin="round"/>
</svg>
