<svg width="29" height="17" viewBox="0 0 29 17" fill="none" xmlns="http://www.w3.org/2000/svg">
<path fill-rule="evenodd" clip-rule="evenodd" d="M14.18 16.5101H15.87C16.1572 16.4673 16.4271 16.3462 16.65 16.1601C16.8129 15.9478 16.9008 15.6876 16.9 15.4201C16.9 15.4201 16.9 13.1601 17.9 12.8001C18.9 12.4401 20.29 15.0001 21.7 16.0001C22.2285 16.427 22.9041 16.6282 23.58 16.5601H27.36C27.36 16.5601 29.36 16.4501 28.36 14.9001C27.6412 13.652 26.6948 12.5496 25.57 11.6501C23.2 9.45005 23.52 9.81005 26.38 5.99005C28.12 3.69005 28.82 2.28005 28.61 1.64005C28.4 1.00005 27.13 1.22005 27.13 1.22005H22.89C22.6936 1.20551 22.4969 1.24347 22.32 1.33005C22.1388 1.45726 21.994 1.62963 21.9 1.83005C21.4585 2.97194 20.9372 4.08134 20.34 5.15005C18.43 8.36005 17.69 8.54005 17.34 8.33005C16.63 7.87005 16.81 6.46005 16.81 5.47005C16.81 2.36005 17.27 1.05005 15.89 0.730053C15.2348 0.576207 14.5628 0.50565 13.89 0.520054C12.7018 0.418745 11.5052 0.537395 10.36 0.870054C9.86001 1.12005 9.51 1.65005 9.72 1.65005C9.95876 1.66937 10.1913 1.73589 10.4042 1.84575C10.617 1.95561 10.8059 2.10663 10.96 2.29005C11.2451 2.88238 11.3888 3.53276 11.38 4.19005C11.38 4.19005 11.63 7.87005 10.78 8.33005C10.22 8.65005 9.44001 8.01005 7.78001 5.08005C7.21705 4.05816 6.70964 3.00663 6.26 1.93005C6.1812 1.75129 6.06128 1.59367 5.91 1.47005C5.63587 1.29517 5.31495 1.20796 4.99 1.22005H1.21C1.21 1.22005 0.610004 1.22005 0.400004 1.50005C0.190004 1.78005 0.400004 2.21005 0.400004 2.21005C0.400004 2.21005 3.58 9.60005 7.15 13.3101C8.02926 14.3027 9.10599 15.1009 10.3113 15.6536C11.5167 16.2063 12.8241 16.5014 14.15 16.5201L14.18 16.5101Z" fill="white"/>
</svg>
