<svg width="25" height="19" viewBox="0 0 25 19" fill="none" xmlns="http://www.w3.org/2000/svg">
<path d="M19.68 0.660034H5.32C4.12894 0.714611 3.00742 1.23656 2.1987 2.11268C1.38998 2.98879 0.95927 4.14842 1 5.34003V13.66C0.978614 14.2537 1.07446 14.8458 1.28206 15.4024C1.48966 15.959 1.80495 16.4692 2.20988 16.9038C2.61482 17.3385 3.10146 17.689 3.64198 17.9355C4.18251 18.1819 4.76631 18.3194 5.36 18.34H19.68C20.8711 18.2855 21.9926 17.7635 22.8013 16.8874C23.61 16.0113 24.0407 14.8516 24 13.66V5.34003C24.0434 4.14772 23.6136 2.98661 22.8043 2.10991C21.995 1.23321 20.872 0.712038 19.68 0.660034ZM9.46 13.29V5.71003L15.54 9.51003L9.46 13.29Z" fill="white"/>
</svg>
