<svg width="23" height="27" viewBox="0 0 23 27" fill="none" xmlns="http://www.w3.org/2000/svg">
<g clip-path="url(#clip0_1_274)">
<path d="M8.53005 16.9375C7.57119 15.9824 6.61938 15.0345 5.6524 14.0717C5.71687 14.0028 5.76508 13.9488 5.81546 13.8975C10.081 9.56163 14.3476 5.22633 18.6094 0.886056C18.7334 0.759779 18.8185 0.766396 18.9523 0.846904C20.0265 1.49538 20.8554 2.37656 21.4345 3.50367C21.5157 3.66138 21.5146 3.75402 21.3825 3.88802C17.1315 8.20016 12.8861 12.5178 8.63893 16.8344C8.59722 16.8768 8.55226 16.9165 8.53005 16.9375Z" fill="white"/>
<path d="M5.34897 13.7409C4.42208 12.7836 3.48815 11.8186 2.54663 10.8459C2.60568 10.7831 2.65064 10.7323 2.69831 10.6844C5.60358 7.73092 8.49043 4.75818 11.4233 1.83287C12.7831 0.476356 14.4597 -0.134073 16.3828 0.0269435C17.0302 0.0809833 17.6477 0.244757 18.2464 0.494002C18.2821 0.50889 18.3151 0.530947 18.3352 0.542527C14.0106 4.9374 9.68927 9.33006 5.34897 13.7409Z" fill="white"/>
<path d="M8.86102 17.2636C13.1341 12.9194 17.4246 8.55821 21.7205 4.19092C21.9209 4.73462 22.0471 5.31417 22.0964 5.90971C22.2622 7.90973 21.6262 9.6208 20.2497 11.0424C17.5871 13.7929 14.9126 16.5324 12.2414 19.2746C12.1087 19.4108 11.9684 19.5432 11.8172 19.6573C11.5789 19.8376 11.3497 19.847 11.1525 19.6457C10.3751 18.8528 9.61077 18.046 8.86102 17.2636Z" fill="white"/>
<path d="M8.14645 4.54752C7.21469 5.49377 6.29105 6.43174 5.35549 7.3824C5.31432 7.3438 5.26394 7.30079 5.21789 7.25392C4.0456 6.06284 2.87494 4.869 1.69777 3.68179C1.58239 3.56543 1.55855 3.48272 1.64198 3.33328C2.25575 2.22823 3.0938 1.35697 4.19837 0.75537C4.29967 0.700227 4.36955 0.68589 4.46273 0.781287C5.67511 2.02034 6.89128 3.25443 8.10636 4.49017C8.12045 4.50451 8.12966 4.52326 8.14645 4.54752Z" fill="white"/>
<path d="M12.4732 26.9167C12.3545 26.9167 12.2354 26.9167 12.1167 26.9167C11.7987 26.9167 11.4791 26.8991 11.1627 26.9228C10.9352 26.9399 10.8014 26.8467 10.6741 26.6741C10.2321 26.0741 9.78081 25.4808 9.33226 24.8858C9.251 24.7783 9.16487 24.6752 9.03106 24.5831C9.03106 25.349 9.03106 26.1155 9.03106 26.909C8.61502 26.909 8.23202 26.914 7.8501 26.9013C7.81164 26.9002 7.74826 26.7893 7.74501 26.7265C7.73038 26.4452 7.7293 26.1629 7.72984 25.8806C7.73417 23.8784 7.74338 21.8761 7.74176 19.8739C7.74176 19.6671 7.79864 19.5916 8.00395 19.6043C8.26723 19.6202 8.53159 19.6197 8.79541 19.6125C8.96118 19.6081 9.01644 19.6677 9.01589 19.8392C9.0121 20.7683 9.01915 21.6969 9.0224 22.6261C9.02294 22.7904 9.0224 22.9547 9.0224 23.1863C9.12966 23.0689 9.20496 22.9983 9.26617 22.9172C9.69088 22.3559 10.1145 21.7945 10.5327 21.2282C10.6107 21.1223 10.6958 21.0859 10.8225 21.0876C11.3025 21.0942 11.7825 21.0903 12.3226 21.0903C12.2402 21.2078 12.1909 21.2833 12.1368 21.355C11.5609 22.1193 10.9889 22.8869 10.4038 23.6434C10.2797 23.8034 10.283 23.9125 10.4027 24.0686C11.0463 24.9095 11.6806 25.7576 12.3177 26.6041C12.3784 26.6846 12.4353 26.7684 12.4943 26.8511C12.4867 26.8731 12.4802 26.8947 12.4732 26.9167Z" fill="white"/>
<path d="M19.1966 24.8858C19.2757 25.3209 19.5411 25.5746 19.9171 25.6865C20.8185 25.9556 21.3846 25.6997 21.6977 24.839C21.753 24.6873 21.8126 24.6355 21.9746 24.6741C22.2378 24.7364 22.5065 24.775 22.7736 24.8197C22.8928 24.8395 22.9291 24.8914 22.896 25.0176C22.6777 25.8558 21.9881 26.871 20.6089 26.9923C19.6078 27.08 18.5579 26.4646 18.1554 25.5023C17.6662 24.3333 17.6938 23.1803 18.3602 22.0852C19.1272 20.8246 21.572 20.3669 22.5894 22.303C22.7622 22.6322 22.8592 23.0033 22.98 23.3595C23.038 23.5299 22.9719 23.633 22.7898 23.6915C21.6939 24.0455 20.6013 24.41 19.5081 24.7717C19.4068 24.8042 19.3076 24.8445 19.1966 24.8858ZM19.0915 23.7527C19.1316 23.7488 19.1592 23.751 19.183 23.7433C19.9214 23.499 20.6603 23.2575 21.3965 23.0066C21.6132 22.9327 21.6235 22.8792 21.487 22.684C21.2568 22.3554 20.916 22.2357 20.5428 22.1927C19.7199 22.0989 18.9257 22.9426 19.0915 23.7527Z" fill="white"/>
<path d="M14.8069 21.0082C16.398 20.9978 17.2089 22.1949 17.3855 23.4472C17.4083 23.6093 17.3037 23.6303 17.2035 23.6634C16.3606 23.9402 15.5166 24.2143 14.6736 24.4916C14.3649 24.5931 14.0593 24.7045 13.75 24.8037C13.5907 24.855 13.5642 24.9488 13.6449 25.0822C13.7148 25.1986 13.7798 25.3243 13.8741 25.418C14.5615 26.1068 15.7549 25.8178 16.0735 24.8782C16.1396 24.6824 16.2219 24.6355 16.4072 24.678C16.651 24.7337 16.8985 24.7745 17.1466 24.8092C17.3054 24.8313 17.3335 24.9102 17.2902 25.0508C16.911 26.2827 15.9348 27.0938 14.5848 26.9819C13.3524 26.8799 12.4856 25.965 12.2841 24.6129C12.1546 23.7466 12.2332 22.9046 12.7234 22.1536C13.2137 21.4003 13.919 21.0264 14.8069 21.0082ZM13.5068 23.7626C14.2663 23.515 15.0128 23.2735 15.7576 23.0281C16.0204 22.9416 16.0339 22.8826 15.8606 22.6614C15.4543 22.1447 14.6173 22.0163 14.0734 22.3868C13.6866 22.6504 13.3984 23.3276 13.5068 23.7626Z" fill="white"/>
<path d="M5.01043 7.74036C4.13013 8.63478 3.21136 9.56779 2.29206 10.5019C0.948581 9.48618 0.424734 5.83739 1.34187 4.0061C2.55696 5.24295 3.78072 6.48863 5.01043 7.74036Z" fill="white"/>
<path d="M11.1422 1.47831C10.2359 2.39974 9.33827 3.31235 8.45309 4.21173C7.24179 2.98039 6.01912 1.73748 4.78345 0.481332C5.65346 0.109672 6.57493 -0.0436248 7.52999 0.00986353C9.01811 0.0942316 10.3697 0.749325 11.1422 1.47831Z" fill="white"/>
<path d="M4.38578 25.6092C4.38578 26.046 4.38578 26.4502 4.38578 26.8841C4.30344 26.888 4.21893 26.8952 4.13442 26.8952C3.36301 26.8946 2.59159 26.8963 1.82018 26.8902C1.42418 26.8869 1.03468 26.829 0.686348 26.6222C0.156 26.3068 0.0108176 25.7818 0.0070255 25.2106C-0.00435072 23.6285 0.00214997 22.047 0.00160825 20.465C0.00160825 20.2047 0.00160825 19.9444 0.00160825 19.661C0.421445 19.661 0.821779 19.661 1.26274 19.661C1.26274 19.9659 1.26274 20.2659 1.26274 20.5659C1.26383 21.8518 1.26328 23.1383 1.26708 24.4242C1.26762 24.5957 1.27574 24.7683 1.29741 24.9382C1.34671 25.3225 1.5309 25.532 1.90902 25.564C2.35974 25.6021 2.8137 25.5999 3.26658 25.6076C3.63008 25.6142 3.99412 25.6092 4.38578 25.6092Z" fill="white"/>
<path d="M6.45188 26.9013C6.02825 26.9013 5.61979 26.9013 5.19562 26.9013C5.19562 25.2807 5.19562 23.6755 5.19562 22.0438C5.58403 22.0438 5.96703 22.0378 6.35003 22.0526C6.39066 22.0543 6.45892 22.174 6.46054 22.2401C6.473 22.8241 6.47625 23.4086 6.47625 23.9926C6.47625 24.893 6.47246 25.7935 6.46921 26.694C6.46813 26.7607 6.45784 26.8269 6.45188 26.9013Z" fill="white"/>
<path d="M5.86577 19.5387C6.26448 19.5381 6.54563 19.8453 6.54347 20.2781C6.5413 20.7071 6.24065 21.0176 5.83219 21.0137C5.42102 21.0099 5.11115 20.6818 5.11441 20.2539C5.11766 19.8265 5.41939 19.5392 5.86577 19.5387Z" fill="white"/>
</g>
<defs>
<clipPath id="clip0_1_274">
<rect width="23" height="27" fill="white"/>
</clipPath>
</defs>
</svg>
